<svg xmlns="http://www.w3.org/2000/svg" id="Layer_1" viewBox="0 0 799.9 309.1"><style>.st0{fill:#3F403F;} .st1{fill:#2C2D79;} .st2{fill-rule:evenodd;clip-rule:evenodd;fill:#E93325;}</style><path d="M318.8 277.9c-.5-4.5-3.2-6.3-7.7-6.3s-7 1.9-7 5.2c0 3.5 3.6 4.2 8.4 5.3 5.1 1.1 11.6 2.6 11.6 9.2 0 6.9-6.2 9.5-12.1 9.5-7.4 0-12.9-3.5-12.9-11h4c.2 5.6 4.3 7.6 9.3 7.6 3.6 0 7.7-1.3 7.7-5.7 0-4-3.9-4.8-9.1-6-5-1.1-10.9-2-10.9-8.5 0-6.4 5.7-8.9 11.3-8.9 6.6 0 11.2 3.1 11.4 9.8h-4v-.2zm356.4 24.9c-1.2 3.2-2.5 6.2-6.5 6.2-1 0-1.8-.2-2.8-.4v-3.3c1.2.3 1.8.5 2.4.5 1.2 0 2.2-.8 2.6-1.9l1.8-4.1-9-22.5h4.2l6.7 18 6.3-18h3.9l-9.6 25.5zm-13.6-22.4h-4.5v13.2c0 2.1-.1 3.3 2.5 3.3.7 0 1.2 0 2-.1v3.2c-1.2.1-1.7.2-2.8.2-5.6 0-5.4-2.8-5.4-7.7v-12h-3.8v-3.1h3.8v-6.7h3.7v6.7h4.5v3zm-15.9 19.5H642v-22.6h3.8v22.6h-.1zm0-26.6H642v-4.6h3.8v4.6h-.1zm-13.2 10.6c-.3-3-2.3-4.1-5.5-4.1-2.8 0-4.6 1.2-4.6 3.1 0 2.5 2.9 2.9 6 3.6 3.8.9 8.8 2 8.8 6.9 0 4.4-3.7 7.3-9.4 7.3-6.1 0-9.5-2.8-9.7-7.8h3.7c.2 3.4 2.5 4.8 6.1 4.8 3.3 0 5.5-1.5 5.5-3.8 0-2.5-2.5-3-5.7-3.8-3.9-1-9.1-1.4-9.1-6.7 0-4.1 3.4-6.7 8.6-6.7 5.1 0 9 2.5 9 7.2h-3.7zm-16.3-3.2h-1c-6.1 0-7.2 4.7-7.2 9.8v9.5h-3.7v-22.6h3.5v4.9c1.6-3.8 4.3-5.4 8.4-5.4v3.8zm-26.4-.9c-3.6 0-6.2 2.6-6.7 6.9h13.1c-.3-4.3-2.7-6.9-6.4-6.9zm.2 20.9c-6.7 0-10.6-4.4-10.6-11.7 0-7.3 4.2-12.3 10.5-12.3 7.4 0 10.2 5.9 10.2 12.4v.5h-17v.3c0 4.8 2.7 7.7 7 7.7 3.2 0 5-1.4 6.1-4.8h3.6c-1.1 5.2-4.5 7.9-9.8 7.9zm-29.8-23.3l6.4 19 6.2-19h3.9l-8.3 22.6h-4l-8.4-22.6h4.2zm-8.2 22.5h-3.8v-22.6h3.8v22.6zm0-26.6h-3.8v-4.6h3.8v4.6zm-25.2 7.6c1.9-2.8 4.2-4.1 7.7-4.1 5.5 0 7.5 3 7.5 8.2v15h-3.7v-13.3c0-3.6-.2-6.7-4.9-6.7-4.9 0-6.4 3.7-6.4 8.1v11.8h-3.7v-22.6h3.5v3.6zm-31-12.1v19.7c0 6 2.4 8.8 8.4 8.8 6.3 0 8.4-3 8.4-8.8v-19.7h4.2v18.6c0 8.8-3.1 13.3-12.6 13.3-9 0-12.6-4.2-12.6-12.8v-19h4.2v-.1zm-31.9 11c-3.6 0-6.2 2.6-6.7 6.9h13.1c-.3-4.3-2.7-6.9-6.4-6.9zm.2 20.9c-6.7 0-10.6-4.4-10.6-11.7 0-7.3 4.2-12.3 10.5-12.3 7.4 0 10.2 5.9 10.2 12.4v.5h-17v.3c0 4.8 2.7 7.7 7 7.7 3.2 0 5-1.4 6.1-4.8h3.6c-1.1 5.2-4.4 7.9-9.8 7.9zm-12.7-20h-1c-6.1 0-7.2 4.7-7.2 9.8v9.5h-3.7v-22.6h3.5v4.9c1.6-3.8 4.3-5.4 8.4-5.4v3.8zm-26.7 8.9c-2.7.3-6.4.7-6.4 4.3 0 2.3 1.7 3.8 4.5 3.8 3.5 0 6.9-2.4 6.9-5.3v-4.1c-1.4 1-3.3 1.1-5 1.3zm11 10.3c-.8.3-1.7.4-2.5.4-2.1 0-3.2-1.2-3.3-3.3-2.2 2.5-4.7 3.6-8.2 3.6-4.5 0-7.2-2.5-7.2-6.4 0-4 2.7-6.4 8-7 5.4-.7 7.2-.5 7.2-3.6 0-2.4-1.8-3.7-5.1-3.7-3.5 0-5.3 1.3-5.6 4.6h-3.6c.1-4.8 3.6-7.7 9.5-7.7 3 0 5.6.8 7.1 2.2 1.6 1.5 1.5 3.9 1.5 5.9 0 3.4-.2 6.7-.2 10.1 0 1.7.4 2.2 1.5 2.2.3 0 .5 0 .9-.1v2.8zm-51.6-22.5l5.2 18.6 4.6-18.6h4.1l4.8 18.6 5.1-18.6h3.9l-7.2 22.6h-3.9l-4.6-17.9-4.6 17.9h-4l-7.3-22.6h3.9zm-6.6 3H373v13.2c0 2.1-.1 3.3 2.5 3.3.7 0 1.2 0 2-.1v3.2c-1.2.1-1.7.2-2.8.2-5.6 0-5.4-2.8-5.4-7.7v-12h-3.8v-3.1h3.8v-6.7h3.7v6.7h4.5v3zm-12.8-8.5c-.5-.1-1.3-.2-2.1-.2-2.4 0-2.8.5-2.8 3v2.6h4.3v3.1h-4.3v19.5H356v-19.5h-3.8v-3.1h3.8v-3c0-4.2 2.3-5.8 6.3-5.8.9 0 1.3 0 2.4.2v3.2zm-33.1 16.8c0 5.6 2.7 8.8 7.2 8.8 4.4 0 7-3.3 7-8.9 0-5.4-2.7-8.8-7.1-8.8-4.4 0-7.1 3.5-7.1 8.9zm18-.2c0 7.7-4 12.1-10.9 12.1s-11-4.5-11-11.9 4.2-12 11.1-12c6.8 0 10.8 4.3 10.8 11.8z" class="st0"/><path d="M300.5 243.3V115.5h33.7l45 83.5h.5v-83.5h26.5v127.7h-30.3L327.6 157h-.6v86.2h-26.5v.1zm336.6-37.2c.8 11.9 12.7 17.6 26.2 17.6 9.9 0 18.7-2.3 26.5-4.9l3.8 19.5c-9.5 4-22 6.8-34.5 6.8-31.5 0-49.5-18.2-49.5-47.2 0-23.5 14.6-49.5 46.8-49.5 29.9 0 41.3 23.3 41.3 46.2 0 4.9-.9 8.6-.9 8.6l-59.7 2.9zm17.6-38.4c-12.1.1-17.1 11.2-17.8 18.8l34.2-1.2c-.1 0-.7-17.8-16.4-17.6zm-112.5-17.1s17.2 57.2 18.7 64.6h.6c1.5-7.6 18-64.6 18-64.6h26.8l-28.1 92.7h-33.9l-29.9-92.7h28.7-.9zm212.3 74.1c-12.3 0-19-11.9-19-27.9 0-13.6 5.3-27.9 19-27.9 13.1 0 18.4 14 18.4 27.7 0 16.9-7 28.1-18.4 28.1zm1-76.4c-28.1 0-46.7 19.1-46.7 49.3 0 29.9 19.6 47.8 45.1 47.8 23.3 0 45.9-15.5 45.9-49.5.1-28-17.7-47.6-44.3-47.6zM467 224.7c-12.3 0-19-11.9-19-27.9 0-13.6 5.3-27.9 19-27.9 13.1 0 18.4 14 18.4 27.7 0 16.9-7 28.1-18.4 28.1zm1-76.4c-28.1 0-46.7 19.1-46.7 49.3 0 29.9 19.6 47.8 45.1 47.8 23.3 0 45.9-15.5 45.9-49.5 0-28-17.8-47.6-44.3-47.6z" class="st1"/><path d="M99.7 107.8c2.1-12.2 6.5-23.3 12.7-33 22.1 6.6 65.2 1.3 85.5-31.5C222.8 54 239 82.2 240 111.4c16 5.6 21.9 32.8 12.7 60.5-8.9 26.6-30.7 51.5-48.8 62.2-16.5 22.4-46.6 46.1-75 55.2-32.4 10.4-57.3.7-53.6-23.2 32.3 28.4 76.7 1.9 103.9-28.2 5.7 2.1 13.2 1.3 21.6-2.3 1.1-.5 2-.9 3.1-1.5 18.7-17.7 47.7-60.2 24.5-81.7 5.8-10.6 9.9-22.9 11.3-35.9.1-1.6.2-3.5.3-5.1-17-41-66.2-28.9-87.6 8.6-12.3-7.9-27.9-12.6-45.6-12.5-2.3.1-4.7.2-7.1.3zm-21.7 22c-23.4 33.6-23.4 80.9 18.4 96.4-8 8.9-20.7 27.3-21 39.9-42 .6-75.4-24.7-75.4-62.4 0-1.9.1-3.7.2-5.7 3.3-38.7 35.6-73.1 76.1-85.6.5 6 1.1 11.9 1.7 17.4z" class="st2"/><path d="M83.1 62.4c-6.7 26-2.3 58.8.9 82.2 4.4-8.7 12.9-19.1 17.5-23.4-7.4-14-14.8-37.4-13.5-59.1H82.6l.5.3zm54.2-60.7c-30.5 13.8-59.6 38.3-85.8 61 35.3-6.8 65.3-6.3 104.4-.5C180 38.6 206.7 21 241.1 3.8c-37.6-4.2-71.6-4.9-103.8-2.1zm-31.5 60c1.3 6.1 2.5 17.1 2.1 21.2 7.3 7 34.1 8.4 55.6.7 22.6-8 42.4-25.3 42.1-36.3-2.3-4-4.9-10.1-6.3-15.1-15.2 10.1-29 21.4-42 34.1-17.1-2.5-34.1-4.4-51.5-4.6z" class="st0"/></svg>
