<svg xmlns="http://www.w3.org/2000/svg" viewBox="170 0 160 160">
    <g fill="#BE1622">
        <path d="M234.3 124.3l3.6 7.1 26.2-12.9-3.6-7.1-26.2 12.9zm5.8-18.7l18.1 9 3.6-7.1-18.1-9-3.6 7.1z"/>
        <path d="M232.7 131.7l36.5 10.7 2.3-7.4-36.5-10.7-2.3 7.4zm18.7-81.3c-8.4 0-15.2 6.8-15.2 15.2s6.8 15.2 15.2 15.2 15.2-6.8 15.2-15.2-6.8-15.2-15.2-15.2zm0 20c-2.6 0-4.8-2.3-4.8-4.8 0-2.6 2.3-4.8 4.8-4.8s4.8 2.3 4.8 4.8c-.3 2.5-2.2 4.8-4.8 4.8z"/>
        <path d="M260.5 77.8c-1-2.9-4.2-5.2-7.4-5.2h-3.6c-3.2 0-6.5 2.3-7.4 5.2l-22.6 71c-1 2.9 1 5.2 3.9 5.2h4.5c1.6 0 3.2-1.3 3.6-2.6l11.6-39.7c2.9-9.4 4.5-17.4 7.7-26.8h.6c2.9 9.4 4.8 17.4 7.7 26.8l11.6 39.7c.3 1.6 1.9 2.6 3.6 2.6h5.2c3.2 0 4.8-2.3 3.9-5.2l-22.9-71zm22.6-16.5l-2.6-1.9 11.9-4.5-1.9-2.9 27.1-2.3.3.6-11 4.2 1.3 2.3-14.5 3.6 2.3 2.9-20 2.6-.3-.6 7.4-4m-1-28.7l2.3 1.9-19 13.2-.3-.3 6.8-9-3.6.3 7.4-8.7-1.9-2.3L297 10.3l.3.3-9 12.3h2.9l-9.1 9.7m-61 0l-2.3 1.9 19 13.2.3-.3-6.8-9 3.6.3-7.4-8.7 1.9-2.3-23.2-17.4-.3.3 9 12.3H212l9.1 9.7m-1 28.7l2.6-1.9-11.9-4.5 1.9-2.9-27.1-2.3-.3.6 11 4.2-1.3 2.3 14.5 3.6-2.3 2.9 20 2.6.3-.6-7.4-4"/>
    </g>
</svg>
