<svg xmlns="http://www.w3.org/2000/svg" xmlns:xlink="http://www.w3.org/1999/xlink" viewBox="-187 240 80 80">
<linearGradient id="a" gradientUnits="userSpaceOnUse" x1="-271.374" y1="-655.416" x2="-271.374" y2="-626.83" gradientTransform="matrix(1.98 0 0 -1.98 391.17 -988.424)">
<stop offset="0" stop-color="#2075bc"/>
<stop offset="1" stop-color="#29aae1"/>
</linearGradient>
<path fill="url(#a)" d="M-130.1 252.8l-.1-.1v.1l-15.9 6.3-16-6.3v-.1l-.1.1v-.1.1l-16 6.4v50.1l16-6.1 16.1 6.1 16-6.1 16.1 6.1v-50.1l-16.1-6.4z"/>
<linearGradient id="b" gradientUnits="userSpaceOnUse" x1="-283.52" y1="-655.416" x2="-283.52" y2="-626.83" gradientTransform="matrix(1.98 0 0 -1.98 391.17 -988.424)">
<stop offset="0" stop-color="#0a6aa8"/>
<stop offset="1" stop-color="#1699c8"/>
</linearGradient>
<path fill="url(#b)" d="M-178.2 259.2v50.1l16.1-6.1v-50.5l-16.1 6.5z"/>
<linearGradient id="c" gradientUnits="userSpaceOnUse" x1="-275.439" y1="-655.416" x2="-275.439" y2="-626.83" gradientTransform="matrix(1.98 0 0 -1.98 391.17 -988.424)">
<stop offset="0" stop-color="#2075bc"/>
<stop offset="1" stop-color="#29aae1"/>
</linearGradient>
<path fill="url(#c)" d="M-146.1 259.2v50.1l-16.1-6.1v-50.5l16.1 6.5z"/>
<linearGradient id="d" gradientUnits="userSpaceOnUse" x1="-267.333" y1="-655.416" x2="-267.333" y2="-626.83" gradientTransform="matrix(1.98 0 0 -1.98 391.17 -988.424)">
<stop offset="0" stop-color="#0a6aa8"/>
<stop offset="1" stop-color="#1699c8"/>
</linearGradient>
<path fill="url(#d)" d="M-146.1 259.2v50.1l16-6.1v-50.5l-16 6.5z"/>
<linearGradient id="e" gradientUnits="userSpaceOnUse" x1="-259.252" y1="-655.416" x2="-259.252" y2="-626.83" gradientTransform="matrix(1.98 0 0 -1.98 391.17 -988.424)">
<stop offset="0" stop-color="#2075bc"/>
<stop offset="1" stop-color="#29aae1"/>
</linearGradient>
<path fill="url(#e)" d="M-114 259.2v50.1l-16.2-6.1v-50.5l16.2 6.5z"/>
<defs>
<path id="f" d="M-123.2 282.1c-.6-1.7-.4-4.6-.7-5-1.9-2.6-8.7-3-11.8-6.4.5-1.7-.6-3-1.7-4.1-1.7-1.2-4-.7-5.8-.2-2-.4-3.9-1.2-5.9-1.7-4.4-.5-8.8 2.6-8.8 2.6-3.2 2-8.1 6.2-10.5 8.6.6.1 1.2-.4 1.9-.4l4.6-1.2c-1.9 1.6-5.9 4.3-7.1 6.5 1.4-.5 4.4-2.1 5.9-2.3-1.3 1.1-4 3.3-4.9 4.7.1.1 0 .2 0 .3 1.1-.6 3.8-2.2 5.1-2.3-1.3 1.3-3.6 3.9-4.1 5.6 1.1-.7 3.9-2.2 5.1-2.6-.3.7-.9 1.2-1.3 1.8-.6.9-1.9 2-1.9 3.1 1-.9 2.2-1.7 3.4-2.3-.5 1.1-1.5 2-1.8 3.4.8-.8 2.3-1.2 3.3-1.5l-.1.1c-.1.1-1.2.9-2 1.8.7 0 .2-.1 1.1.1h.5c-.2.1-.5.3-.8.4-.4.2-.9.5-1.3.7 1.9 2.4 4.2 4.4 6.9 5.7 3.5 1.7 7.3 2.3 11.2 1.8 0-.2-.1-.4-.2-.7-.1-.3-.2-.5-.2-.8 1.3-2.4.6-6.6 4-8.3 2.3-1.2 2.5-1.8 5.1-1.3 1.4.3 4.5 1.3 5.9 1 1.3-.7 2-1.1 3.2-1.9 1.4.3 1.9.1 2.4-.6-.5.7.9-2.6 1.5-3.8l-.2-.8z"/>
</defs>
<clipPath id="g">
<use xlink:href="#f" overflow="visible"/>
</clipPath>
<ellipse clip-path="url(#g)" fill="#FFF" cx="-146.1" cy="282.3" rx="29.8" ry="20.2"/>
<defs>
<path id="h" d="M-123.2 282.1c-.6-1.7-.4-4.6-.7-5-1.9-2.6-8.7-3-11.8-6.4.5-1.7-.6-3-1.7-4.1-1.7-1.2-4-.7-5.8-.2-2-.4-3.9-1.2-5.9-1.7-4.4-.5-8.8 2.6-8.8 2.6-3.2 2-8.1 6.2-10.5 8.6.6.1 1.2-.4 1.9-.4l4.6-1.2c-1.9 1.6-5.9 4.3-7.1 6.5 1.4-.5 4.4-2.1 5.9-2.3-1.3 1.1-4 3.3-4.9 4.7.1.1 0 .2 0 .3 1.1-.6 3.8-2.2 5.1-2.3-1.3 1.3-3.6 3.9-4.1 5.6 1.1-.7 3.9-2.2 5.1-2.6-.3.7-.9 1.2-1.3 1.8-.6.9-1.9 2-1.9 3.1 1-.9 2.2-1.7 3.4-2.3-.5 1.1-1.5 2-1.8 3.4.8-.8 2.3-1.2 3.3-1.5l-.1.1c-.1.1-1.2.9-2 1.8.7 0 .2-.1 1.1.1h.5c-.2.1-.5.3-.8.4-.4.2-.9.5-1.3.7 1.9 2.4 4.2 4.4 6.9 5.7 3.5 1.7 7.3 2.3 11.2 1.8 0-.2-.1-.4-.2-.7-.1-.3-.2-.5-.2-.8 1.3-2.4.6-6.6 4-8.3 2.3-1.2 2.5-1.8 5.1-1.3 1.4.3 4.5 1.3 5.9 1 1.3-.7 2-1.1 3.2-1.9 1.4.3 1.9.1 2.4-.6-.5.7.9-2.6 1.5-3.8l-.2-.8z"/>
</defs>
<clipPath id="i">
<use xlink:href="#h" overflow="visible"/>
</clipPath>
<path clip-path="url(#i)" fill="#F2F2F2" d="M-177.8 260.1v50.7l15.9-6.3v-50.8l-15.9 6.4z"/>
<g>
<defs>
<path id="j" d="M-123.2 282.1c-.6-1.7-.4-4.6-.7-5-1.9-2.6-8.7-3-11.8-6.4.5-1.7-.6-3-1.7-4.1-1.7-1.2-4-.7-5.8-.2-2-.4-3.9-1.2-5.9-1.7-4.4-.5-8.8 2.6-8.8 2.6-3.2 2-8.1 6.2-10.5 8.6.6.1 1.2-.4 1.9-.4l4.6-1.2c-1.9 1.6-5.9 4.3-7.1 6.5 1.4-.5 4.4-2.1 5.9-2.3-1.3 1.1-4 3.3-4.9 4.7.1.1 0 .2 0 .3 1.1-.6 3.8-2.2 5.1-2.3-1.3 1.3-3.6 3.9-4.1 5.6 1.1-.7 3.9-2.2 5.1-2.6-.3.7-.9 1.2-1.3 1.8-.6.9-1.9 2-1.9 3.1 1-.9 2.2-1.7 3.4-2.3-.5 1.1-1.5 2-1.8 3.4.8-.8 2.3-1.2 3.3-1.5l-.1.1c-.1.1-1.2.9-2 1.8.7 0 .2-.1 1.1.1h.5c-.2.1-.5.3-.8.4-.4.2-.9.5-1.3.7 1.9 2.4 4.2 4.4 6.9 5.7 3.5 1.7 7.3 2.3 11.2 1.8 0-.2-.1-.4-.2-.7-.1-.3-.2-.5-.2-.8 1.3-2.4.6-6.6 4-8.3 2.3-1.2 2.5-1.8 5.1-1.3 1.4.3 4.5 1.3 5.9 1 1.3-.7 2-1.1 3.2-1.9 1.4.3 1.9.1 2.4-.6-.5.7.9-2.6 1.5-3.8l-.2-.8z"/>
</defs>
<clipPath id="k">
<use xlink:href="#j" overflow="visible"/>
</clipPath>
<path clip-path="url(#k)" fill="#FFF" d="M-146 260.1v50.7l-16-6.3v-50.8l16 6.4z"/>
</g>
<g>
<defs>
<path id="l" d="M-123.2 282.1c-.6-1.7-.4-4.6-.7-5-1.9-2.6-8.7-3-11.8-6.4.5-1.7-.6-3-1.7-4.1-1.7-1.2-4-.7-5.8-.2-2-.4-3.9-1.2-5.9-1.7-4.4-.5-8.8 2.6-8.8 2.6-3.2 2-8.1 6.2-10.5 8.6.6.1 1.2-.4 1.9-.4l4.6-1.2c-1.9 1.6-5.9 4.3-7.1 6.5 1.4-.5 4.4-2.1 5.9-2.3-1.3 1.1-4 3.3-4.9 4.7.1.1 0 .2 0 .3 1.1-.6 3.8-2.2 5.1-2.3-1.3 1.3-3.6 3.9-4.1 5.6 1.1-.7 3.9-2.2 5.1-2.6-.3.7-.9 1.2-1.3 1.8-.6.9-1.9 2-1.9 3.1 1-.9 2.2-1.7 3.4-2.3-.5 1.1-1.5 2-1.8 3.4.8-.8 2.3-1.2 3.3-1.5l-.1.1c-.1.1-1.2.9-2 1.8.7 0 .2-.1 1.1.1h.5c-.2.1-.5.3-.8.4-.4.2-.9.5-1.3.7 1.9 2.4 4.2 4.4 6.9 5.7 3.5 1.7 7.3 2.3 11.2 1.8 0-.2-.1-.4-.2-.7-.1-.3-.2-.5-.2-.8 1.3-2.4.6-6.6 4-8.3 2.3-1.2 2.5-1.8 5.1-1.3 1.4.3 4.5 1.3 5.9 1 1.3-.7 2-1.1 3.2-1.9 1.4.3 1.9.1 2.4-.6-.5.7.9-2.6 1.5-3.8l-.2-.8z"/>
</defs>
<clipPath id="m">
<use xlink:href="#l" overflow="visible"/>
</clipPath>
<path clip-path="url(#m)" fill="#F2F2F2" d="M-146 260.1v50.7l15.8-6.3v-50.8l-15.8 6.4z"/>
</g>
<g>
<defs>
<path id="n" d="M-123.2 282.1c-.6-1.7-.4-4.6-.7-5-1.9-2.6-8.7-3-11.8-6.4.5-1.7-.6-3-1.7-4.1-1.7-1.2-4-.7-5.8-.2-2-.4-3.9-1.2-5.9-1.7-4.4-.5-8.8 2.6-8.8 2.6-3.2 2-8.1 6.2-10.5 8.6.6.1 1.2-.4 1.9-.4l4.6-1.2c-1.9 1.6-5.9 4.3-7.1 6.5 1.4-.5 4.4-2.1 5.9-2.3-1.3 1.1-4 3.3-4.9 4.7.1.1 0 .2 0 .3 1.1-.6 3.8-2.2 5.1-2.3-1.3 1.3-3.6 3.9-4.1 5.6 1.1-.7 3.9-2.2 5.1-2.6-.3.7-.9 1.2-1.3 1.8-.6.9-1.9 2-1.9 3.1 1-.9 2.2-1.7 3.4-2.3-.5 1.1-1.5 2-1.8 3.4.8-.8 2.3-1.2 3.3-1.5l-.1.1c-.1.1-1.2.9-2 1.8.7 0 .2-.1 1.1.1h.5c-.2.1-.5.3-.8.4-.4.2-.9.5-1.3.7 1.9 2.4 4.2 4.4 6.9 5.7 3.5 1.7 7.3 2.3 11.2 1.8 0-.2-.1-.4-.2-.7-.1-.3-.2-.5-.2-.8 1.3-2.4.6-6.6 4-8.3 2.3-1.2 2.5-1.8 5.1-1.3 1.4.3 4.5 1.3 5.9 1 1.3-.7 2-1.1 3.2-1.9 1.4.3 1.9.1 2.4-.6-.5.7.9-2.6 1.5-3.8l-.2-.8z"/>
</defs>
<clipPath id="o">
<use xlink:href="#n" overflow="visible"/>
</clipPath>
<path clip-path="url(#o)" fill="#FFF" d="M-114.2 260.1v50.7l-16-6.3v-50.8l16 6.4z"/>
</g>
</svg>
