<svg xmlns="http://www.w3.org/2000/svg" viewBox="0 0 31 31" alt="Udacity">
<path id="mark" fill="#02B3E4" d="M29 .1l-9 4.7v14.9c0 .6 0 1.3-.2 1.9-.1.6-.3 1.2-.5 1.7-.1.1-.1.3-.2.4-.3 0-2.5-.7-3.5-1.4-.4-.3-.8-.6-1.2-1-.4-.4-.7-.8-1-1.2-.3-.4-.6-.9-.8-1.4-.2-.5-.4-1-.5-1.6-.1-.5-.1-1.1-.1-1.6V1.2L10 0 0 5.9v13.7C0 25.9 5.1 31 11.3 31c2.1 0 4-.5 5.7-1.5l8.4-4.8c3.3-1.7 5.6-5.2 5.6-9.1V1.3L29 .1zM17.9 26.2c-.9.9-1.6 1.4-2.6 1.9-.6.2-1.3.5-1.9.7-.6.1-1.2.2-1.8.2-.6 0-1.6-.1-2.2-.2-.6-.1-1.2-.3-1.7-.5s-1.1-.5-1.6-.9c-1.3-.9-1.9-1.7-2.5-2.5-.3-.5-.6-1-.9-1.6-.2-.6-.4-1.1-.5-1.7-.2-.7-.2-1.4-.2-2V7.1l8-4.7v13.1c0 5 3.7 9.1 8.4 10.1-.2.2-.3.4-.5.6zm11-9c-.1.5-.3 1-.5 1.5s-.6 1.2-1 1.7c-.6.7-1.2 1.2-2.7 2.1-1.3.7-2.4.9-3.1 1.1.5-1.2.5-2.5.5-3.9L22 6l7-3.7v13.3c0 .5 0 1.1-.1 1.6z"></path>
</svg>
